HIERARCHY
ROOT Hips
{
	OFFSET 0.000000 0.000000 0.000000 
	CHANNELS 6 Xposition Yposition Zposition Zrotation Yrotation Xrotation
	JOINT LeftUpLeg
	{
		OFFSET 1.363060 -1.794630 0.839290 
		CHANNELS 3 Zrotation Yrotation Xrotation
		JOINT LeftLeg
		{
			OFFSET 2.448110 -6.726130 0.000000 
			CHANNELS 3 Zrotation Yrotation Xrotation
			JOINT LeftFoot
			{
				OFFSET 2.562200 -7.039590 0.000000 
				CHANNELS 3 Zrotation Yrotation Xrotation
				JOINT LeftToeBase
				{
					OFFSET 0.157640 -0.433110 2.322550 
					CHANNELS 3 Zrotation Yrotation Xrotation
					End Site
					{
						OFFSET 0.000000 0.000000 0.000000 
					}
				}
			}
		}
	}
	JOINT RightUpLeg
	{
		OFFSET -1.305520 -1.794630 0.839290 
		CHANNELS 3 Zrotation Yrotation Xrotation
		JOINT RightLeg
		{
			OFFSET -2.542530 -6.985550 0.000000 
			CHANNELS 3 Zrotation Yrotation Xrotation
			JOINT RightFoot
			{
				OFFSET -2.568260 -7.056230 0.000000 
				CHANNELS 3 Zrotation Yrotation Xrotation
				JOINT RightToeBase
				{
					OFFSET -0.164730 -0.452590 2.363150 
					CHANNELS 3 Zrotation Yrotation Xrotation
					End Site
					{
						OFFSET 0.000000 0.000000 0.000000 
					}
				}
			}
		}
	}
	JOINT Spine
	{
		OFFSET 0.028270 2.035590 -0.193380 
		CHANNELS 3 Zrotation Yrotation Xrotation
		JOINT Spine1
		{
			OFFSET 0.056720 2.048850 -0.042750 
			CHANNELS 3 Zrotation Yrotation Xrotation
			JOINT Neck1
			{
				OFFSET -0.054170 1.746240 0.172020 
				CHANNELS 3 Zrotation Yrotation Xrotation
				JOINT Head
				{
					OFFSET 0.104070 1.761360 -0.123970 
					CHANNELS 3 Zrotation Yrotation Xrotation
					End Site
					{
						OFFSET 0.000000 0.000000 0.000000 
					}
				}
			}
			JOINT LeftArm
			{
				OFFSET 3.362410 1.200890 -0.311210 
				CHANNELS 3 Zrotation Yrotation Xrotation
				JOINT LeftForeArm
				{
					OFFSET 4.983000 -0.000000 -0.000000 
					CHANNELS 3 Zrotation Yrotation Xrotation
					JOINT LeftHand
					{
						OFFSET 3.483560 -0.000000 -0.000000 
						CHANNELS 3 Zrotation Yrotation Xrotation
						JOINT LeftHandIndex1
						{
							OFFSET 0.715260 -0.000000 -0.000000 
							CHANNELS 3 Zrotation Yrotation Xrotation
							End Site
							{
								OFFSET 0.000000 0.000000 0.000000 
							}
						}
					}
				}
			}
			JOINT RightArm
			{
				OFFSET -3.136600 1.374050 -0.404650 
				CHANNELS 3 Zrotation Yrotation Xrotation
				JOINT RightForeArm
				{
					OFFSET -5.241900 -0.000000 -0.000000 
					CHANNELS 3 Zrotation Yrotation Xrotation
					JOINT RightHand
					{
						OFFSET -3.444170 -0.000000 -0.000000 
						CHANNELS 3 Zrotation Yrotation Xrotation
						JOINT RightHandIndex1
						{
							OFFSET -0.622530 -0.000000 -0.000000 
							CHANNELS 3 Zrotation Yrotation Xrotation
							End Site
							{
								OFFSET 0.000000 0.000000 0.000000 
							}
						}
					}
				}
			}
		}
	}
}
MOTION
Frames: 7
Frame Time: 0.041667
3.969346 17.684559 -30.473299 0.002232 0.915218 3.837962 -21.003963 -17.482333 -3.552885 0.551977 11.181840 28.298668 -1.502486 14.633604 -21.163634 0.333800 3.713000 10.270600 25.599342 25.342243 0.000652 -1.999000 -12.170449 31.283615 -0.691694 -18.533299 -35.650273 -0.177500 -2.714100 7.483700 0.280908 -1.200726 -1.993526 -2.346067 -0.711360 8.133349 6.776961 -5.839533 17.763269 4.020300 -2.906300 14.813500 -22.592101 11.160624 -0.136032 16.004036 -23.540080 -4.063583 -0.092067 -0.293618 8.813312 -7.125000 0.000000 0.000000 15.901503 -5.831046 11.346423 -12.992956 19.632306 -2.346790 -0.266464 -0.009540 -18.372036 7.125000 0.000000 0.000000 
3.963866 17.684863 -30.472792 0.064465 0.916922 3.873745 -21.044453 -17.520119 -3.563581 0.569264 11.175378 28.243451 -1.985806 16.192247 -19.923515 0.060800 1.591700 4.378500 25.553412 25.409202 -0.008582 -2.003056 -12.177940 31.304617 -0.696724 -18.570603 -35.716863 -0.177700 -2.715700 7.488100 0.275941 -1.206606 -1.976858 -2.348810 -0.714257 8.200917 6.756684 -5.847185 17.774980 3.997100 -2.900900 14.869900 -22.668165 11.067356 -0.202668 15.937254 -23.450548 -4.031101 -0.091038 -0.290514 8.959089 -7.125000 0.000000 0.000000 15.909288 -5.810454 11.344351 -12.983270 19.618968 -2.343015 -0.264481 -0.010542 -18.443759 7.125000 0.000000 0.000000 
3.958284 17.686081 -30.474111 0.029328 0.935458 3.913200 -20.946560 -17.458709 -3.654756 0.551701 11.184432 28.302233 -1.473749 14.495862 -21.147598 0.345400 3.776600 10.448900 25.613606 25.467561 -0.029949 -1.998170 -12.176841 31.287906 -0.695777 -18.618150 -35.763679 -0.181900 -2.747400 7.576200 0.281657 -1.233376 -1.974803 -2.374374 -0.724240 8.200064 6.800175 -5.840179 17.771641 4.036600 -2.901900 14.859600 -22.732377 11.020122 -0.194563 15.861551 -23.352748 -3.995251 -0.089949 -0.284661 9.118633 -7.125000 0.000000 0.000000 15.910538 -5.777545 11.385838 -12.935924 19.559389 -2.328165 -0.268170 -0.010743 -18.356309 7.125000 0.000000 0.000000 
3.951891 17.686386 -30.473299 0.028064 0.976993 3.947782 -20.888969 -17.412232 -3.724135 0.557420 11.187601 28.312878 -1.513916 14.584771 -20.965546 0.301300 3.529200 9.755800 25.709400 25.688175 0.048681 -1.994504 -12.177496 31.280944 -0.724315 -18.714091 -36.017013 -0.191100 -2.815600 7.765700 0.285747 -1.256036 -1.986273 -2.383323 -0.735429 8.147988 6.787479 -5.828485 17.784337 4.031800 -2.900300 14.852000 -22.783518 11.028022 -0.084873 15.821448 -23.297137 -3.975113 -0.083502 -0.283934 9.244049 -7.125000 0.000000 0.000000 15.899217 -5.799337 11.492856 -12.895199 19.502867 -2.314742 -0.274437 -0.009965 -18.395688 7.125000 0.000000 0.000000 
3.945700 17.686792 -30.473198 0.030484 1.008465 3.981722 -20.839843 -17.374214 -3.794306 0.561225 11.195203 28.338858 -1.470368 14.406909 -21.001334 0.322800 3.652100 10.099800 25.779853 25.856292 0.104314 -1.989980 -12.175015 31.265711 -0.743167 -18.796406 -36.204080 -0.198900 -2.871900 7.922300 0.287076 -1.276669 -1.989979 -2.401074 -0.744415 8.125132 6.796181 -5.822472 17.793699 4.041200 -2.898700 14.858600 -22.830814 11.000385 -0.032662 15.769016 -23.225948 -3.949723 -0.081015 -0.280324 9.380128 -7.125000 0.000000 0.000000 15.899376 -5.806336 11.568744 -12.850242 19.442575 -2.300415 -0.280582 -0.009842 -18.397562 7.125000 0.000000 0.000000 
3.939205 17.686995 -30.472894 0.036669 1.046023 4.014218 -20.792581 -17.325166 -3.865566 0.564331 11.201758 28.361561 -1.421531 14.205230 -21.037563 0.348700 3.794200 10.498300 25.859837 26.050410 0.173823 -1.986756 -12.175216 31.258792 -0.767601 -18.886799 -36.426953 -0.208100 -2.936900 8.103200 0.287119 -1.296275 -1.993070 -2.421050 -0.752862 8.105618 6.806334 -5.818457 17.802661 4.051100 -2.897700 14.865300 -22.868482 10.965585 0.016436 15.719229 -23.157887 -3.925259 -0.080034 -0.278620 9.510487 -7.125000 0.000000 0.000000 15.901652 -5.820175 11.640521 -12.803694 19.380749 -2.285844 -0.287031 -0.009355 -18.396492 7.125000 0.000000 0.000000 
3.932608 17.686995 -30.472386 0.050811 1.088551 4.044812 -20.755060 -17.274980 -3.931814 0.568169 11.206817 28.377543 -1.410657 14.125821 -20.975044 0.344600 3.772100 10.436400 25.941899 26.260917 0.256232 -1.984662 -12.176867 31.257446 -0.796400 -18.982537 -36.676026 -0.218200 -3.006800 8.297800 0.285479 -1.312870 -1.993037 -2.441941 -0.759825 8.100099 6.813890 -5.818595 17.809606 4.057000 -2.896900 14.874900 -22.897997 10.919547 0.056213 15.674476 -23.096425 -3.902849 -0.080156 -0.278547 9.622096 -7.125000 0.000000 0.000000 15.906922 -5.838387 11.696735 -12.762491 19.326910 -2.273124 -0.292519 -0.008309 -18.395473 7.125000 0.000000 0.000000 
